<?xml version="1.0" encoding="UTF-8"?>
<svg width="167px" height="160px" viewBox="0 0 167 160" version="1.1" xmlns="http://www.w3.org/2000/svg" xmlns:xlink="http://www.w3.org/1999/xlink">
    <title>Combined Shape</title>
    <g id="Page-1" stroke="none" stroke-width="1" fill="none" fill-rule="evenodd">
        <path d="M44.8181054,-6.11460113 C64.4511027,13.3124549 77.1380912,33.0314692 82.8790712,53.0424417 C105.230098,55.0541825 133.332784,64.2718334 167.1875,80.6953125 C131.883171,72.818038 104.720966,68.1421282 85.7008866,66.6675834 C88.6020127,89.5837275 83.5815254,120.475724 70.6403114,159.344251 C72.5917176,116.005127 72.0419192,84.9994458 68.9909163,66.3272069 C51.7285741,67.5240355 33.9724923,75.0737955 15.7226563,88.9765625 C11.7747396,96.4088542 6.93619792,98.1002604 1.20703125,94.0507813 C-4.52213542,90.0013021 -4.52213542,85.5494792 1.20703125,80.6953125 C23.0436347,64.2100532 44.4337399,54.9849364 65.3773468,53.0199623 C59.8926158,39.1581745 49.1611651,26.3576057 33.1832781,14.6185229 C27.1783511,10.0211878 25.6724371,4.54986411 28.6655363,-1.79544832 C31.6586354,-8.14076075 37.0428251,-9.58047835 44.8181054,-6.11460113 Z" id="Combined-Shape" fill="#D8D8D8" transform="translate(82.048828, 75.696565) rotate(-10.000000) translate(-82.048828, -75.696565) "></path>
    </g>
</svg>