<?xml version="1.0" encoding="UTF-8"?>
<svg width="668px" height="316px" viewBox="0 0 668 316" version="1.1" xmlns="http://www.w3.org/2000/svg" xmlns:xlink="http://www.w3.org/1999/xlink">
    <title>GnG copy</title>
    <g id="GnG-copy" stroke="none" stroke-width="1" fill="none" fill-rule="evenodd">
        <text id="&amp;" font-family="SavoyeLetPlain, Savoye LET" font-size="220" font-weight="normal" fill="#E2659B">
            <tspan x="287.817" y="167.18475">&amp;</tspan>
        </text>
        <path d="M136.615,99.46 C133.531,98.185 132.041,102.445 131.55,104.424 C127.476,130.294 128.581,157.184 128.992,183.414 C129.233,182.255 128.679,181.159 128.92,179.999 C130.464,174.196 131.938,168.259 133.41,162.322 C136.267,149.635 138.982,136.682 140.27,123.63 C140.718,117.381 141.487,110.446 139.563,104.257 C138.833,102.242 138.809,100.353 136.615,99.46 Z M141.912,101.01 C143.141,103.961 143.559,108.002 143.709,111.185 C144.154,117.818 143.375,124.415 142.526,130.878 C141.615,137.547 140.427,144.019 139.034,150.43 C136.569,162.562 132.561,174.642 129.088,187.14 C129.39,193.506 130.393,206.025 132.461,207.326 C134.805,208.825 137.293,205.438 138.533,203.576 C144.056,194.277 144.728,183.616 146.871,172.168 C147.058,171.553 149.012,171.732 148.896,172.48 C146.628,184.337 146,196.694 139.684,206.757 C138.051,209.173 134.528,211.206 131.453,210.268 C127.967,209.206 125.865,201.395 124.797,196.813 C120.73,173.39 122.004,149.354 123.358,125.791 C123.967,117.911 123.639,109.824 127.385,102.675 C128.679,100.268 131.899,96.024 134.869,95.472 C137.98,95.187 140.896,98.46 141.912,101.01 L141.912,101.01 Z" id="Fill-4" fill="#C1C0BE"></path>
        <path d="M148.005,145.207 C148.041,143.375 149.629,141.7 151.321,141.795 C153.212,141.97 154.41,143.6 154.354,145.769 C154.24,147.8 152.73,149.275 150.899,149.24 C149.208,149.144 147.75,147.296 148.005,145.207 Z M164.105,179.464 C162.147,185.26 160.878,193.681 156.397,199.211 C155.286,200.846 152.863,200.88 150.254,200.191 C148.123,199.458 147.242,197.033 147.019,194.983 C146.804,187.978 147.384,180.135 147.866,172.83 C147.628,173.427 146.673,173.509 146.949,172.235 C147.481,170.025 147.954,167.675 148.386,164.848 C148.462,163.495 148.738,162.221 149.393,161.443 C150.843,159.828 153.471,160.18 154.311,162.129 C154.611,162.826 154.477,165.194 154.261,166.608 C153.443,175.047 151.971,184.264 151.551,192.863 C151.417,195.232 152.238,197.519 155.139,195.443 C156.431,194.226 157.165,193.249 157.798,191.656 C161.143,182.951 163.947,172.995 166.435,163.833 C166.612,163.097 168.668,163.632 168.431,164.23 C167.128,169.248 165.607,174.525 164.105,179.464 L164.105,179.464 Z" id="Fill-5" fill="#C1C0BE"></path>
        <path d="M195.028,118.132 C190.354,119.439 185.97,120.656 181.197,122.154 C177.14,140.107 172.992,156.772 170.462,175.041 C170.105,178.965 169.354,186.19 170.105,187.066 C170.667,187.844 170.87,187.625 171.601,186.919 C177.615,180.266 180.074,171.392 183.718,163.26 C184.367,161.785 185.872,159.356 186.521,157.88 C188.495,143.917 191.426,131.971 195.028,118.132 Z M224.483,105.19 C217.916,110.586 209.445,113.45 201.726,116.189 C197.767,133.953 193.574,150.473 191.144,168.55 C190.849,171.662 189.99,179.556 190.787,180.578 C194.636,185.249 207.608,151.153 207.96,150.249 C208.212,149.535 211.018,150.075 210.91,150.745 C207.005,160.072 200.752,172.844 194.352,182.318 C193.268,183.929 191.28,185.188 189.417,184.82 C186.74,184.389 185.788,181.352 185.541,179.046 C184.775,173.568 185.248,168.496 185.92,163.041 C182.214,171.988 179.131,180.898 173.67,188.808 C172.542,190.275 170.743,191.632 168.736,191.31 C166.059,190.877 165.25,187.795 164.859,185.536 C163.912,179.477 164.881,173.455 165.661,167.333 C167.507,152.456 171.125,138.659 174.5,124.095 C169.292,125.73 164.375,126.273 159.775,128.828 C159.387,129.109 158.871,128.476 159.26,128.195 C164.112,124.925 169.662,122.868 175.112,120.999 C178.118,108.298 181.503,95.798 184.935,83.443 C185.745,80.964 189.67,81.321 189.863,83.961 C187.308,95.565 184.274,107.162 181.719,118.765 C186.393,117.458 190.831,115.907 195.595,114.889 C198.601,102.19 201.895,89.4 205.616,76.954 C206.282,74.521 210.207,74.877 210.4,77.518 C207.891,89.267 204.703,101.387 202.148,112.992 C209.669,110.632 217.561,108.951 224.111,104.511 C225.277,103.668 225.558,104.057 224.483,105.19 L224.483,105.19 Z" id="Fill-6" fill="#C1C0BE"></path>
        <path d="M210.619,160.408 C212.253,160.073 213.856,159.589 215.162,159.167 C224.959,156.389 230.186,141.86 226.756,139.468 C226.22,139.113 225.238,138.85 224.198,139.062 C221.198,139.522 218.802,142.178 217.118,144.534 C214.257,149.453 211.783,154.754 210.619,160.408 Z M241.405,144.515 C236.1,154.883 231.065,165.815 222.153,173.672 C218.6,176.72 213.439,179.478 208.88,176.854 C202.919,173.431 202.166,164.458 204.571,157.312 C206.596,151.329 210.436,145.901 215.353,141.956 C220.418,137.98 224.252,137.814 225.025,137.809 C226.72,137.773 228.505,138.18 229.966,139.274 C232.322,140.959 232.575,144.464 231.192,147.533 C229.896,150.274 226.411,155.165 218.699,159.063 C216.445,160.143 213.09,161.139 210.387,161.538 C209.604,166.03 207.83,174.748 214.698,175.044 C219.602,174.814 222.537,170.604 225.523,167.054 C228.982,162.789 231.992,157.839 234.735,153.101 C235.974,150.836 237.064,148.603 238.302,146.337 L239.51,143.923 C239.864,143.386 241.728,143.83 241.405,144.515 L241.405,144.515 Z" id="Fill-7" fill="#C1C0BE"></path>
        <path d="M243.936,131.303 C242.937,130.668 241.897,133.25 241.806,133.721 C241.4,135.302 241.655,136.254 243.315,137.261 C243.909,135.961 245.636,132.61 243.936,131.303 Z M273.805,140.535 C269.256,147.852 261.935,160.881 255.334,167.703 C253.576,169.46 250.105,171.616 247.583,171.027 C241.656,170.118 244.605,158.728 245.828,155.208 C247.475,150.253 249.743,145.373 252.371,140.904 C249.437,140.674 246.562,140.896 243.811,139.726 C243.013,141.817 242.006,143.476 241.393,144.626 C240.889,145.457 238.103,146.656 238.718,145.505 C239.463,144.186 240.013,142.182 240.851,140.393 C239.19,139.386 238.675,136.771 238.721,134.779 C238.753,133.857 238.758,131.919 239.943,130.256 C241.208,128.185 245.599,128.868 245.969,130.015 C247.042,133.337 246.184,135.185 245.275,137.595 C248.569,138.236 251.117,138.315 253.986,136.872 C254.979,136.283 256.104,135.525 257.286,135.219 C258.338,135.082 259.469,135.546 260.188,136.369 C260.925,137.343 260.951,138.715 260.317,139.715 C259.422,141.054 258.697,142.524 257.951,143.845 C254.467,149.955 251.343,156.475 248.669,162.937 C248.074,164.239 246.649,168.55 248.25,169.105 C249.831,169.511 251.779,168.036 253.014,166.957 C259.974,160.547 267.576,147.33 271.956,139.88 C273.13,138.354 274.81,138.756 273.805,140.535 L273.805,140.535 Z" id="Fill-8" fill="#C1C0BE"></path>
        <path d="M486.333,131.402 C494.985,131.367 502.869,129.673 511.04,127.034 C523.53,122.935 534.957,116.75 544.784,108.122 C549.548,103.801 554.021,99.162 557.76,94.032 C561.348,88.894 565.297,82.56 565.303,76.185 C564.486,61.731 543.7,71.042 536.652,75.556 C525.536,82.604 515.83,91.846 507.154,101.744 C498.813,111.052 492.184,120.304 486.333,131.402 Z M519.995,184.313 C513.914,187.662 507.826,191.16 502.02,195.127 C496.673,198.965 491.76,203.28 487.565,208.387 C483.539,213.199 479.922,218.943 477.817,224.758 C475.722,230.424 476.422,237.894 484.76,234.96 C489.714,232.923 493.231,226.115 496.479,221.719 C505.106,209.693 512.104,196.831 519.995,184.313 Z M499.664,173.83 C506.24,172.783 512.437,170.2 518.207,166.989 C523.04,164.34 527.599,162.071 531.72,158.478 C536.3,154.753 540.753,150.569 543.439,145.238 C545.743,141.554 551.493,145.02 549.189,148.701 C543.428,157.984 537.529,166.954 531.768,176.235 C542.56,169.626 553.439,161.2 561.645,151.583 C562.128,150.999 564.849,151.792 564.364,152.376 C555.524,162.571 542.024,172.269 530.454,179.295 C521.061,194.623 512.395,209.592 500.154,224.173 C496.603,228.554 491.79,234.935 485.911,237.229 C480.813,239.107 474.27,237.624 474.442,230.954 C474.599,224.588 478.223,216.695 481.652,211.702 C489.167,200.685 500.859,193.008 512.256,186.429 C515.213,184.903 519.178,183.226 521.991,181.541 C526.287,174.313 529.282,170.072 537.179,157.404 C534.632,159.859 531.948,161.006 529.266,163.153 C524.222,167.004 518.746,170.381 513.005,172.986 C503.384,177.376 489.353,179.082 480.131,172.109 C468.719,163.361 473.477,145.333 477.54,133.541 C468.779,132.662 460.102,130.116 453.394,124.479 C448.733,120.46 445.516,114.84 444.749,108.732 C443.997,102.323 445.979,95.894 449.719,90.763 C453.313,85.475 458.509,81.628 464.257,78.872 C469.846,76.26 476.588,73.918 482.556,76.029 C485.244,76.918 488.889,78.716 490.127,81.356 C491.517,84.002 491.361,88.182 490.465,91.022 C488.86,95.953 482.016,106.792 473.931,104.686 C471.254,103.989 470.422,101.935 471.108,100.298 C472.142,97.769 475.782,95.532 478.03,96.095 C477.576,96.073 476.126,98.825 476.688,99.762 C477.809,101.638 481.366,101.556 484.767,97.167 C488.173,92.629 491.539,85.811 487.073,80.89 C482.888,76.438 475.435,76.835 470.175,78.857 C464.608,81.015 459.536,85.473 455.674,89.99 C451.48,95.098 448.599,101.332 448.427,108 C448.299,113.76 450.457,118.329 454.664,122.327 C460.766,127.933 469.451,130.328 478.065,131.049 C481.868,121.522 487.447,113.839 493.756,105.799 C506.034,90.459 521.727,76.653 540.321,68.752 C546.206,66.308 554.295,63.071 560.581,64.893 C565.82,66.363 569.082,71.073 568.19,76.948 C567.118,83.42 564.039,90.293 560.308,95.272 C552.207,105.805 541.761,114.708 530.508,121.445 C517.697,129.019 500.126,134.03 484.51,133.728 C473.718,149.746 473.238,177.403 499.664,173.83 L499.664,173.83 Z" id="Fill-9" fill="#C1C0BE"></path>
        <path d="M63.3329997,188.402 C71.9849997,188.367 79.8689997,186.673 88.0399997,184.034 C100.53,179.935 111.957,173.75 121.784,165.122 C126.548,160.801 131.021,156.162 134.76,151.032 C138.348,145.894 142.297,139.56 142.303,133.185 C141.486,118.731 120.7,128.042 113.652,132.556 C102.536,139.604 92.8299997,148.846 84.1539997,158.744 C75.8129997,168.052 69.1839997,177.304 63.3329997,188.402 Z M96.9949997,241.313 C90.9139997,244.662 84.8259997,248.16 79.0199997,252.127 C73.6729997,255.965 68.7599997,260.28 64.5649997,265.387 C60.5389997,270.199 56.9219997,275.943 54.8169997,281.758 C52.7219997,287.424 53.4219997,294.894 61.7599997,291.96 C66.7139997,289.923 70.2309997,283.115 73.4789997,278.719 C82.1059997,266.693 89.1039997,253.831 96.9949997,241.313 Z M76.6639997,230.83 C83.2399997,229.783 89.4369997,227.2 95.2069997,223.989 C100.04,221.34 104.599,219.071 108.72,215.478 C113.3,211.753 117.753,207.569 120.439,202.238 C122.743,198.554 128.493,202.02 126.189,205.701 C120.428,214.984 114.529,223.954 108.768,233.235 C119.56,226.626 130.439,218.2 138.645,208.583 C139.128,207.999 141.849,208.792 141.364,209.376 C132.524,219.571 119.024,229.269 107.454,236.295 C98.0609997,251.623 89.3949997,266.592 77.1539997,281.173 C73.6029997,285.554 68.7899997,291.935 62.9109997,294.229 C57.8129997,296.107 51.2699997,294.624 51.4419997,287.954 C51.5989997,281.588 55.2229997,273.695 58.6519997,268.702 C66.1669997,257.685 77.8589997,250.008 89.2559997,243.429 C92.2129997,241.903 96.1779997,240.226 98.9909997,238.541 C103.287,231.313 106.282,227.072 114.179,214.404 C111.632,216.859 108.948,218.006 106.266,220.153 C101.222,224.004 95.7459997,227.381 90.0049997,229.986 C80.3839997,234.376 66.3529997,236.082 57.1309997,229.109 C45.7189997,220.361 50.4769997,202.333 54.5399997,190.541 C45.7789997,189.662 37.1019997,187.116 30.3939997,181.479 C25.7329997,177.46 22.5159997,171.84 21.7489997,165.732 C20.9969997,159.323 22.9789997,152.894 26.7189997,147.763 C30.3129997,142.475 35.5089997,138.628 41.2569997,135.872 C46.8459997,133.26 53.5879997,130.918 59.5559997,133.029 C62.2439997,133.918 65.8889997,135.716 67.1269997,138.356 C68.5169997,141.002 68.3609997,145.182 67.4649997,148.022 C65.8599997,152.953 59.0159997,163.792 50.9309997,161.686 C48.2539997,160.989 47.4219997,158.935 48.1079997,157.298 C49.1419997,154.769 52.7819997,152.532 55.0299997,153.095 C54.5759997,153.073 53.1259997,155.825 53.6879997,156.762 C54.8089997,158.638 58.3659997,158.556 61.7669997,154.167 C65.1729997,149.629 68.5389997,142.811 64.0729997,137.89 C59.8879997,133.438 52.4349997,133.835 47.1749997,135.857 C41.6079997,138.015 36.5359997,142.473 32.6739997,146.99 C28.4799997,152.098 25.5989997,158.332 25.4269997,165 C25.2989997,170.76 27.4569997,175.329 31.6639997,179.327 C37.7659997,184.933 46.4509997,187.328 55.0649997,188.049 C58.8679997,178.522 64.4469997,170.839 70.7559997,162.799 C83.0339997,147.459 98.7269997,133.653 117.321,125.752 C123.206,123.308 131.295,120.071 137.581,121.893 C142.82,123.363 146.082,128.073 145.19,133.948 C144.118,140.42 141.039,147.293 137.308,152.272 C129.207,162.805 118.761,171.708 107.508,178.445 C94.6969997,186.019 77.1259997,191.03 61.5099997,190.728 C50.7179997,206.746 50.2379997,234.403 76.6639997,230.83 L76.6639997,230.83 Z" id="Fill-9" fill="#C1C0BE" transform="translate(83.463851, 208.170002) rotate(-40.000000) translate(-83.463851, -208.170002) "></path>
        <path d="M627.551,102.338 C626.195,99.288 621.489,102.071 619.769,103.166 C598.985,119.103 581.25,139.348 563.469,158.635 C564.441,157.962 565.521,157.476 566.494,156.802 C571.613,153.662 576.772,150.375 581.933,147.087 C592.747,139.865 603.643,132.351 613.573,123.784 C618.205,119.564 623.544,115.068 626.415,109.259 C627.275,107.294 628.523,104.496 627.551,102.338 Z M629.216,107.871 C628.073,110.857 626.279,113.347 624.195,115.757 C619.943,120.869 614.833,125.113 609.763,129.211 C604.506,133.415 598.183,138.286 592.756,141.969 C582.606,149.061 572.684,155.625 560.97,161.403 C555.254,164.222 548.896,175.983 549.499,178.353 C550.165,181.054 554.302,180.315 556.484,179.821 C566.895,176.889 574.73,169.628 584.175,162.812 C584.733,162.495 585.303,164.284 584.702,164.745 C574.885,171.772 565.912,180.292 554.399,183.23 C551.552,183.856 547.323,182.588 545.739,179.789 C543.947,176.617 548.808,169.508 551.194,165.452 C564.392,145.679 581.882,129.142 599.106,113.001 C604.979,107.71 611.039,102.316 618.682,99.717 C621.279,98.866 626.124,98.046 628.655,99.693 C631.106,101.631 630.238,105.324 629.216,107.871 L629.216,107.871 Z" id="Fill-10" fill="#C1C0BE"></path>
        <path d="M599.231,177.842 C599.685,177.535 607.406,171.024 603.186,170.941 C600.935,170.844 598.444,172.939 598.348,175.191 C598.369,176.345 598.7,177.135 599.231,177.842 Z M620.375,177.19 C616.14,179.557 606.427,182.832 601.591,181.846 C597.033,186.209 592.077,188.185 585.933,189.611 C580.917,190.68 573.207,190.323 570.933,184.653 C568.575,178.785 572.617,171.265 576.863,167.265 C583.629,160.692 594.118,157.433 603.165,160.133 C605.805,160.88 608.642,162.362 609.806,165.126 C610.473,166.707 610.37,169.775 608.499,171.958 C608.187,172.322 606.739,171.814 606.911,171.392 C607.934,169.682 608.536,167.799 607.621,165.626 C604.895,160.262 596.367,162.767 591.709,164.962 C586.008,167.713 580.633,172.072 576.356,176.55 C574.346,178.677 572.049,181.506 572.622,184.522 C573.194,187.538 576.34,188.654 578.986,188.584 C584.73,188.141 592.551,182.748 597.385,179.315 C596.63,178.353 596.131,176.168 596.308,174.932 C596.634,172.117 600.601,169.054 603.164,168.788 C605.249,168.49 606.959,170.514 607.059,172.682 C607.07,175.468 605.283,177.85 603.468,179.893 C607.857,180.371 614.259,178.459 617.959,176.202 C618.412,175.896 621.222,176.715 620.375,177.19 L620.375,177.19 Z" id="Fill-11" fill="#C1C0BE"></path>
        <g id="Group-15" transform="translate(600.000000, 164.000000)" fill="#C1C0BE">
            <path d="M30.467,7.573 C30.752,7.389 38.405,4.872 36.625,3.115 C35.606,2.16 33.767,3.185 32.966,3.944 C31.879,4.885 30.9,6.245 30.467,7.573 Z M47.287,27.661 C40.597,30.042 28.197,34.934 20.332,36.621 C16.542,37.374 12.384,37.555 8.659,36.409 C6.263,35.696 -2.128,32.319 0.566,26.868 C2.079,23.713 6.927,21.473 10.443,22.671 C12.37,23.285 12.514,25.128 11.533,26.487 C10.323,28.237 8.4,28.508 6.995,28.206 C7.41,28.098 8.573,27.025 8.152,26.249 C7.127,24.41 4.046,24.461 2.503,27.07 C1.708,28.923 1.846,29.997 2.415,30.483 C4.221,32.08 7.807,33.086 10.298,32.446 C20.442,29.29 23.256,19.276 27.466,10.67 C25.573,11.489 22.85,12.52 20.126,13.551 C19.013,13.949 18.952,11.858 19.861,11.513 C21.884,10.772 25.384,9.321 28.029,8.42 C29.466,5.396 31.558,1.366 34.692,0.62 C38.014,-0.17 40.045,3.49 38.005,5.452 C36.195,7.023 32.627,8.793 30.396,9.587 C30.149,19.831 28.619,31.837 17.178,35.107 C15.516,35.533 14.596,35.751 12.696,35.74 C16.907,35.765 20.172,34.998 24.218,33.516 C30.263,31.632 40.476,28.635 45.791,26.497 C46.414,26.336 47.987,27.371 47.287,27.661 L47.287,27.661 Z" id="Fill-12"></path>
            <path d="M56.482,24.238 C56.792,24.104 64.754,22.868 63.285,20.845 C62.434,19.735 60.454,20.447 59.539,21.065 C58.314,21.818 57.126,22.998 56.482,24.238 Z M68.938,46.953 C61.955,48.262 49.775,50.863 41.74,51.243 C37.878,51.367 33.747,50.867 30.258,49.129 C28.01,48.034 20.282,43.333 23.831,38.395 C25.84,35.529 30.986,34.111 34.261,35.867 C36.063,36.786 35.901,38.629 34.714,39.809 C33.233,41.336 31.294,41.292 29.955,40.764 C30.383,40.726 31.705,39.857 31.417,39.023 C30.706,37.04 26.924,36.715 24.976,39.037 C23.61,40.664 24.3,41.956 25.268,43.162 C27.162,45.148 29.959,45.712 32.521,45.487 C43.045,44.029 47.424,33.898 52.981,26.096 C50.771,26.177 47.254,27.34 47.287,27.661 C47.304,27.822 45.348,26.672 45.348,26.672 C45.348,26.672 50.764,24.755 53.937,24.675 C55.849,21.927 58.473,19.107 61.687,18.869 C64.478,18.662 66.437,22.161 63.77,23.495 C61.626,24.567 58.492,25.237 56.162,25.657 C54.247,35.723 50.698,47.875 38.875,49.235 C37.167,49.383 36.226,49.34 34.364,48.964 C38.357,50.336 41.495,50.378 45.729,49.578 C52,48.705 62.893,46.36 68.579,45.666 C69.979,45.495 70.271,46.703 68.938,46.953 L68.938,46.953 Z" id="Fill-14"></path>
        </g>
        <path d="" id="Fill-16" fill="#E2659B"></path>
    </g>
</svg>